<svg id="Icons" xmlns="http://www.w3.org/2000/svg" viewBox="0 0 512 512"><defs><style>.cls-1{fill:#0989d8;}.cls-2{fill:#29a3fb;}.cls-3{fill:#2e3140;}.cls-4{fill:#334353;}.cls-5{fill:#3f5d77;}.cls-6{fill:#c2aacf;}.cls-7{fill:#decee5;}.cls-8{fill:#f4e6f4;}.cls-9{fill:#fa4654;}.cls-10{fill:#fff;}.cls-11{fill:#f39e22;}.cls-12{fill:#f9c744;}.cls-13{fill:#c44a1a;}.cls-14{fill:#e52e44;}.cls-15{fill:#fb626e;}</style></defs><title>019-beer-export</title><circle class="cls-1" cx="256" cy="256" r="255.98"/><path class="cls-2" d="M474.07,121.9A255.64,255.64,0,0,1,493.72,351C441.26,482.26,292.32,546.17,161,493.72A254.74,254.74,0,0,1,47.16,404.09a76.24,76.24,0,0,0,8.51-13.32c12.56-25.06,13.77-57.7,36.2-74.51,15.39-11.53,36.6-11.7,55.38-7.55s36.65,12.07,55.63,15.19a112.55,112.55,0,0,0,129-91.27c3.73-21,2.94-45.79,19.62-59,22.67-18,60.19.06,83.33-17.35,7.46-5.62,12.11-14.11,18.54-20.86A54.48,54.48,0,0,1,474.07,121.9Z"/><path class="cls-3" d="M204.07,144.87H96.7a18.27,18.27,0,0,1,0-36.53,17.9,17.9,0,0,1,2.72.21L183.49,121a24.14,24.14,0,0,1,20.58,23.87Z"/><path class="cls-4" d="M183.7,121c6.64,1,5.78,10.91-.94,10.91H96.7a18.28,18.28,0,0,1-17.08-11.8,18.28,18.28,0,0,1,17-11.8,17.9,17.9,0,0,1,2.72.21L183.49,121Z"/><ellipse class="cls-5" cx="105.4" cy="119.37" rx="5.8" ry="12.82" transform="translate(-20.03 217.49) rotate(-86.59)"/><ellipse class="cls-5" cx="129.82" cy="120.83" rx="3.92" ry="8.66" transform="translate(1.48 243.23) rotate(-86.59)"/><path class="cls-6" d="M227.35,200.41V265.2a11,11,0,0,1-11,11H189.88a11,11,0,0,1-10.81-8.88l-1-4.92-11.34-57.49a23.27,23.27,0,0,1,22.84-27.78h14.47a23.26,23.26,0,0,1,23.28,23.27Z"/><path class="cls-7" d="M213.55,186.61v64.78a11,11,0,0,1-11,11H178.1l-11.34-57.49a23.27,23.27,0,0,1,22.84-27.78h14.47a23.07,23.07,0,0,1,8.05,1.43A23,23,0,0,1,213.55,186.61Z"/><ellipse class="cls-8" cx="183.06" cy="205.66" rx="9.96" ry="17.49" transform="translate(-28 28.86) rotate(-8.38)"/><ellipse class="cls-8" cx="189.71" cy="240.22" rx="5.99" ry="12.93" transform="translate(-32.97 30.19) rotate(-8.38)"/><rect class="cls-6" x="189.12" y="144.87" width="14.96" height="32.27"/><path class="cls-7" d="M189.12,151.07h0a8.61,8.61,0,0,1,8.61,8.61v17.46a0,0,0,0,1,0,0h-8.61a0,0,0,0,1,0,0V151.07A0,0,0,0,1,189.12,151.07Z"/><rect class="cls-6" x="254.01" y="141.81" width="11.31" height="58.6"/><rect class="cls-7" x="254.01" y="141.81" width="5.66" height="58.6"/><path class="cls-6" d="M315.51,88.58a55.87,55.87,0,1,1-20.26-43A55.84,55.84,0,0,1,315.51,88.58Z"/><path class="cls-7" d="M308,81.09a55.82,55.82,0,0,1-91.39,43.05,55.83,55.83,0,0,1,78.64-78.58A55.6,55.6,0,0,1,308,81.09Z"/><path class="cls-8" d="M227.47,56.41c-4.91,4.9-10.82,7-13.22,4.56a4.18,4.18,0,0,1-.94-3.53h0a55.77,55.77,0,0,1,15.2-15.19,4.12,4.12,0,0,1,3.53.95C234.43,45.57,232.39,51.49,227.47,56.41Z"/><path class="cls-8" d="M213.93,77.49c-1.47,5.18-4.71,8.81-7.23,8.09-1.29-.36-2.15-1.8-2.47-3.81A56.16,56.16,0,0,1,207,70c1.54-2.34,3.43-3.65,5-3.19C214.54,67.51,215.4,72.3,213.93,77.49Z"/><circle class="cls-9" cx="259.66" cy="88.59" r="46.4"/><path class="cls-10" d="M306.06,88.58a46.4,46.4,0,0,1-1.56,12H286.87c-4.35,11.69-14.89,19.94-27.21,19.94s-22.85-8.25-27.2-19.94H214.82a46.64,46.64,0,0,1,0-24h17.63c4.35-11.67,14.89-19.92,27.2-19.92s22.86,8.25,27.21,19.92h17.62A46,46,0,0,1,306.06,88.58Z"/><ellipse class="cls-11" cx="259.66" cy="88.59" rx="21.28" ry="23.13"/><ellipse class="cls-12" cx="259.66" cy="88.59" rx="15.89" ry="17.27"/><rect class="cls-13" x="250.73" y="78.63" width="17.65" height="4.68" rx="2.34"/><rect class="cls-13" x="244.94" y="87.07" width="29.24" height="4.68" rx="2.34"/><path class="cls-14" d="M337.07,272.15v159.6H272.76V272.41a41.11,41.11,0,0,0-41.11-41.11h-4.3V200.41h38A71.75,71.75,0,0,1,337.07,272.15Z"/><path class="cls-9" d="M337.07,272.15v145.6H316.38a29.61,29.61,0,0,1-29.61-29.62V258.4a41.11,41.11,0,0,0-41.11-41.1h0a4.31,4.31,0,0,1-4.3-4.31V200.41h24A71.75,71.75,0,0,1,337.07,272.15Z"/><ellipse class="cls-15" cx="304.79" cy="237.18" rx="11.19" ry="20.51" transform="translate(-81.35 244.19) rotate(-38.93)"/><ellipse class="cls-15" cx="319.74" cy="275.32" rx="7.69" ry="14.11" transform="translate(-36.69 49.51) rotate(-8.38)"/><path class="cls-6" d="M363.56,456.22V467.4H246.27V456.22a24.46,24.46,0,0,1,24.46-24.47H339.1a24.45,24.45,0,0,1,24.46,24.47Z"/><path class="cls-7" d="M353,445.6a11.2,11.2,0,0,1-11.2,11.2H246.27v-.58a24.46,24.46,0,0,1,24.46-24.47H339.1a24.42,24.42,0,0,1,11.16,2.69A24.35,24.35,0,0,1,353,445.6Z"/><ellipse class="cls-8" cx="275.26" cy="442.67" rx="15.37" ry="6.91"/><ellipse class="cls-8" cx="307.46" cy="442.67" rx="10.56" ry="4.12"/></svg>